<svg xmlns="http://www.w3.org/2000/svg" xmlns:xlink="http://www.w3.org/1999/xlink" version="1.1" width="256" height="256" viewBox="0 0 256 256" xml:space="preserve">

<defs>
</defs>
<g style="stroke: none; stroke-width: 0; stroke-dasharray: none; stroke-linecap: butt; stroke-linejoin: miter; stroke-miterlimit: 10; fill: none; fill-rule: nonzero; opacity: 1;" transform="translate(1.4065934065934016 1.4065934065934016) scale(2.81 2.81)" >
	<path d="M 31.554 29.449 c 1.148 -0.866 2.034 -2.05 2.658 -3.46 c 0.015 -0.033 0.031 -0.064 0.045 -0.098 c 0.192 -0.446 0.357 -0.915 0.498 -1.401 c 0.007 -0.023 0.014 -0.045 0.021 -0.068 c 0.008 -0.03 0.016 -0.061 0.024 -0.091 c 0.064 -0.232 0.121 -0.469 0.173 -0.709 c 0.053 -0.245 0.102 -0.492 0.143 -0.745 c 0.003 -0.016 0.006 -0.032 0.009 -0.049 c 0.045 -0.28 0.08 -0.566 0.11 -0.855 c 0.068 -0.655 0.101 -1.33 0.094 -2.023 c -6.372 -0.356 -9.524 4.684 -9.455 11.066 L 31.554 29.449 z" style="stroke: none; stroke-width: 1; stroke-dasharray: none; stroke-linecap: butt; stroke-linejoin: miter; stroke-miterlimit: 10; fill: rgb(130,212,101); fill-rule: nonzero; opacity: 1;" transform=" matrix(1 0 0 1 0 0) " stroke-linecap="round" />
	<path d="M 55.807 21.951 c -0.198 -0.049 -0.39 -0.106 -0.579 -0.168 c -2.191 -0.728 -3.762 -2.335 -4.71 -4.477 c -0.014 -0.032 -0.03 -0.063 -0.044 -0.095 c -0.187 -0.434 -0.347 -0.89 -0.484 -1.363 c -0.006 -0.022 -0.014 -0.044 -0.02 -0.066 c -0.008 -0.029 -0.015 -0.06 -0.023 -0.089 c -0.062 -0.226 -0.117 -0.456 -0.168 -0.69 c -0.052 -0.238 -0.099 -0.479 -0.139 -0.724 c -0.003 -0.016 -0.006 -0.031 -0.008 -0.047 c -0.044 -0.273 -0.078 -0.551 -0.107 -0.832 c -0.066 -0.638 -0.098 -1.294 -0.091 -1.968 c 6.199 -0.347 9.266 4.558 9.199 10.767 c -0.194 0.011 -0.384 0.017 -0.572 0.017 c -0.478 0.002 -0.934 -0.032 -1.372 -0.094 c -0.25 -0.035 -0.496 -0.076 -0.733 -0.131 C 55.905 21.979 55.857 21.964 55.807 21.951 z" style="stroke: none; stroke-width: 1; stroke-dasharray: none; stroke-linecap: butt; stroke-linejoin: miter; stroke-miterlimit: 10; fill: rgb(130,212,101); fill-rule: nonzero; opacity: 1;" transform=" matrix(1 0 0 1 0 0) " stroke-linecap="round" />
	<path d="M 74.566 43.761 c -0.602 -1.91 -1.538 -3.671 -2.739 -5.216 c -0.993 -1.277 -1.543 -2.833 -1.515 -4.45 c 0.001 -0.066 0.002 -0.132 0.002 -0.199 c 0 -6.775 -5.768 -12.203 -12.661 -11.641 c -5.119 0.417 -9.418 4.239 -10.457 9.268 c -0.183 0.886 -0.259 1.756 -0.242 2.603 c 0.031 1.573 -0.482 3.106 -1.455 4.342 c -0.399 0.507 -0.769 1.037 -1.108 1.589 l -1.62 13.963 c 0.437 2.329 1.597 4.351 3.239 6.169 c 9.709 1.76 19.591 -2.231 29.636 -11.656 L 74.566 43.761 z" style="stroke: none; stroke-width: 1; stroke-dasharray: none; stroke-linecap: butt; stroke-linejoin: miter; stroke-miterlimit: 10; fill: rgb(255,240,130); fill-rule: nonzero; opacity: 1;" transform=" matrix(1 0 0 1 0 0) " stroke-linecap="round" />
	<path d="M 37.724 60.19 c 3.26 -3.349 5.604 -8.269 6.733 -13.621 c 2.093 -12.386 -8.261 -20.536 -18.584 -15.553 C 15.55 26.033 5.196 34.183 7.289 46.57 c 0.279 1.32 0.631 2.614 1.053 3.864 C 14.111 59.53 24.306 62.199 37.724 60.19 z" style="stroke: none; stroke-width: 1; stroke-dasharray: none; stroke-linecap: butt; stroke-linejoin: miter; stroke-miterlimit: 10; fill: rgb(255,83,104); fill-rule: nonzero; opacity: 1;" transform=" matrix(1 0 0 1 0 0) " stroke-linecap="round" />
	<path d="M 1.416 49.933 c -0.384 0.487 -0.518 1.133 -0.335 1.726 C 5.616 66.28 20.58 77.506 38.924 78.514 c 22.742 1.25 42.054 -13.675 43.134 -33.335 c 1.725 -6.057 3.302 -9.995 6.942 -12.936 c -3.78 -1.382 -7.224 -1.191 -10.553 -0.057 C 77.53 48.858 58.352 61.36 35.61 60.11 c -12.261 -0.674 -23.05 -5.21 -30.248 -11.859 c -0.817 -0.755 -2.096 -0.661 -2.785 0.211 L 1.416 49.933 z" style="stroke: none; stroke-width: 1; stroke-dasharray: none; stroke-linecap: butt; stroke-linejoin: miter; stroke-miterlimit: 10; fill: rgb(255,207,93); fill-rule: nonzero; opacity: 1;" transform=" matrix(1 0 0 1 0 0) " stroke-linecap="round" />
	<path d="M 41.6 79.587 c -0.908 0.001 -1.817 -0.024 -2.731 -0.075 C 20.494 78.503 4.925 67.428 0.127 51.954 c -0.28 -0.899 -0.091 -1.887 0.505 -2.642 l 1.161 -1.47 c 0.499 -0.631 1.244 -1.03 2.045 -1.093 c 0.803 -0.064 1.608 0.217 2.204 0.767 c 7.291 6.735 18.088 10.961 29.624 11.596 c 22.168 1.202 40.899 -10.887 41.784 -26.981 c 0.021 -0.408 0.289 -0.76 0.676 -0.892 c 3.844 -1.31 7.514 -1.291 11.219 0.064 c 0.338 0.124 0.584 0.42 0.643 0.775 c 0.06 0.355 -0.077 0.715 -0.357 0.942 c -3.35 2.707 -4.852 6.28 -6.579 12.326 c -0.57 9.759 -5.477 18.681 -13.825 25.133 C 61.566 76.398 51.843 79.587 41.6 79.587 z M 4.066 48.741 c -0.024 0 -0.048 0.001 -0.073 0.003 c -0.25 0.02 -0.475 0.14 -0.631 0.338 l -1.161 1.471 l 0 0 c -0.187 0.236 -0.248 0.538 -0.164 0.809 c 4.552 14.68 19.397 25.19 36.941 26.154 c 10.763 0.59 21.067 -2.47 29.024 -8.618 c 7.914 -6.116 12.551 -14.559 13.058 -23.773 c 0.004 -0.074 0.016 -0.148 0.036 -0.219 c 1.583 -5.557 3.076 -9.332 5.932 -12.225 c -2.521 -0.627 -4.995 -0.544 -7.63 0.25 c -1.427 16.85 -20.908 29.442 -43.842 28.178 C 23.563 60.45 12.31 56.031 4.683 48.985 C 4.512 48.826 4.294 48.741 4.066 48.741 z M 1.416 49.933 h 0.01 H 1.416 z" style="stroke: none; stroke-width: 1; stroke-dasharray: none; stroke-linecap: butt; stroke-linejoin: miter; stroke-miterlimit: 10; fill: rgb(0,0,0); fill-rule: nonzero; opacity: 1;" transform=" matrix(1 0 0 1 0 0) " stroke-linecap="round" />
	<path d="M 54.803 67.683 c -0.413 0 -0.8 -0.258 -0.943 -0.669 c -0.183 -0.521 0.092 -1.092 0.612 -1.274 c 4.585 -1.607 8.925 -4.061 12.899 -7.295 c 0.429 -0.349 1.06 -0.283 1.406 0.145 c 0.349 0.429 0.284 1.058 -0.145 1.406 c -4.154 3.38 -8.696 5.947 -13.499 7.631 C 55.024 67.666 54.912 67.683 54.803 67.683 z" style="stroke: none; stroke-width: 1; stroke-dasharray: none; stroke-linecap: butt; stroke-linejoin: miter; stroke-miterlimit: 10; fill: rgb(0,0,0); fill-rule: nonzero; opacity: 1;" transform=" matrix(1 0 0 1 0 0) " stroke-linecap="round" />
	<path d="M 43.387 70.015 c -0.52 0 -0.958 -0.402 -0.997 -0.929 c -0.04 -0.551 0.375 -1.029 0.926 -1.068 c 1.456 -0.104 2.909 -0.279 4.318 -0.519 c 0.543 -0.086 1.061 0.274 1.153 0.819 c 0.092 0.544 -0.274 1.061 -0.819 1.153 c -1.472 0.249 -2.989 0.432 -4.508 0.54 C 43.435 70.014 43.411 70.015 43.387 70.015 z" style="stroke: none; stroke-width: 1; stroke-dasharray: none; stroke-linecap: butt; stroke-linejoin: miter; stroke-miterlimit: 10; fill: rgb(0,0,0); fill-rule: nonzero; opacity: 1;" transform=" matrix(1 0 0 1 0 0) " stroke-linecap="round" />
	<path d="M 37.724 61.189 c -0.251 0 -0.503 -0.094 -0.698 -0.283 c -0.396 -0.386 -0.404 -1.019 -0.019 -1.414 c 3.046 -3.129 5.344 -7.792 6.471 -13.13 c 0.945 -5.596 -0.796 -10.696 -4.665 -13.602 c -3.492 -2.624 -8.168 -2.939 -12.507 -0.844 c -0.274 0.133 -0.595 0.133 -0.869 0 c -4.341 -2.094 -9.016 -1.779 -12.507 0.844 c -3.869 2.906 -5.609 8.006 -4.657 13.642 c 0.263 1.24 0.607 2.503 1.015 3.712 c 0.177 0.522 -0.104 1.09 -0.627 1.267 c -0.523 0.179 -1.091 -0.104 -1.267 -0.628 c -0.433 -1.282 -0.798 -2.621 -1.084 -3.977 c -1.087 -6.429 0.942 -12.251 5.42 -15.615 c 3.984 -2.992 9.239 -3.447 14.142 -1.248 c 4.904 -2.199 10.159 -1.745 14.142 1.248 c 4.478 3.364 6.507 9.186 5.428 15.575 c -1.211 5.743 -3.696 10.754 -7.003 14.15 C 38.244 61.088 37.984 61.189 37.724 61.189 z" style="stroke: none; stroke-width: 1; stroke-dasharray: none; stroke-linecap: butt; stroke-linejoin: miter; stroke-miterlimit: 10; fill: rgb(0,0,0); fill-rule: nonzero; opacity: 1;" transform=" matrix(1 0 0 1 0 0) " stroke-linecap="round" />
	<path d="M 25.873 32.016 c -0.547 0 -0.994 -0.44 -1 -0.989 c -0.044 -4.088 1.165 -7.519 3.404 -9.66 c 1.818 -1.738 4.281 -2.575 7.106 -2.416 c 0.526 0.029 0.938 0.461 0.944 0.988 c 0.007 0.713 -0.026 1.432 -0.099 2.136 c -0.032 0.309 -0.07 0.612 -0.118 0.91 c -0.053 0.321 -0.105 0.586 -0.162 0.848 c -0.056 0.258 -0.117 0.513 -0.186 0.762 c -0.001 0.006 -0.027 0.103 -0.029 0.109 c -0.173 0.598 -0.355 1.109 -0.559 1.582 c -0.001 0.003 -0.047 0.104 -0.049 0.107 c -0.711 1.607 -1.711 2.903 -2.97 3.854 c -0.442 0.332 -1.068 0.245 -1.401 -0.196 c -0.333 -0.441 -0.245 -1.068 0.196 -1.401 c 0.985 -0.743 1.774 -1.775 2.346 -3.067 c 0.211 -0.485 0.365 -0.916 0.496 -1.372 l 0.995 0.157 l -0.954 -0.304 c 0.06 -0.216 0.112 -0.435 0.16 -0.657 c 0.049 -0.228 0.095 -0.458 0.133 -0.692 c 0.05 -0.31 0.083 -0.577 0.111 -0.848 c 0.032 -0.307 0.055 -0.617 0.07 -0.929 c -1.866 0.075 -3.427 0.703 -4.65 1.873 c -1.835 1.754 -2.824 4.663 -2.786 8.192 c 0.006 0.552 -0.437 1.005 -0.989 1.011 C 25.88 32.016 25.876 32.016 25.873 32.016 z" style="stroke: none; stroke-width: 1; stroke-dasharray: none; stroke-linecap: butt; stroke-linejoin: miter; stroke-miterlimit: 10; fill: rgb(0,0,0); fill-rule: nonzero; opacity: 1;" transform=" matrix(1 0 0 1 0 0) " stroke-linecap="round" />
	<path d="M 25.873 32.016 c -0.003 0 -0.007 0 -0.011 0 c -0.552 -0.006 -0.995 -0.458 -0.989 -1.011 c 0.045 -4.164 -1.349 -7.445 -3.826 -9.005 c -0.467 -0.294 -0.608 -0.912 -0.313 -1.379 c 0.293 -0.467 0.912 -0.607 1.379 -0.313 c 3.078 1.938 4.813 5.845 4.76 10.719 C 26.867 31.576 26.42 32.016 25.873 32.016 z" style="stroke: none; stroke-width: 1; stroke-dasharray: none; stroke-linecap: butt; stroke-linejoin: miter; stroke-miterlimit: 10; fill: rgb(0,0,0); fill-rule: nonzero; opacity: 1;" transform=" matrix(1 0 0 1 0 0) " stroke-linecap="round" />
	<path d="M 12.129 47.702 c -0.479 0 -0.902 -0.345 -0.985 -0.833 c -0.062 -0.366 -0.11 -0.729 -0.145 -1.084 c -0.606 -6.203 2.762 -11.329 8.19 -12.467 c 0.54 -0.113 1.071 0.233 1.184 0.773 c 0.114 0.541 -0.233 1.07 -0.773 1.184 c -4.395 0.922 -7.114 5.163 -6.61 10.315 c 0.031 0.31 0.072 0.626 0.126 0.945 c 0.092 0.544 -0.274 1.061 -0.819 1.153 C 12.24 47.697 12.184 47.702 12.129 47.702 z" style="stroke: none; stroke-width: 1; stroke-dasharray: none; stroke-linecap: butt; stroke-linejoin: miter; stroke-miterlimit: 10; fill: rgb(0,0,0); fill-rule: nonzero; opacity: 1;" transform=" matrix(1 0 0 1 0 0) " stroke-linecap="round" />
	<path d="M 46.01 60.718 c -0.279 0 -0.558 -0.117 -0.755 -0.345 c -1.798 -2.074 -3.104 -4.569 -3.777 -7.216 c -0.136 -0.535 0.187 -1.079 0.723 -1.215 c 0.535 -0.138 1.08 0.186 1.216 0.723 c 0.597 2.346 1.755 4.559 3.35 6.397 c 0.361 0.417 0.316 1.049 -0.101 1.411 C 46.476 60.638 46.242 60.718 46.01 60.718 z" style="stroke: none; stroke-width: 1; stroke-dasharray: none; stroke-linecap: butt; stroke-linejoin: miter; stroke-miterlimit: 10; fill: rgb(0,0,0); fill-rule: nonzero; opacity: 1;" transform=" matrix(1 0 0 1 0 0) " stroke-linecap="round" />
	<path d="M 74.566 44.762 c -0.425 0 -0.819 -0.273 -0.954 -0.7 c -0.559 -1.775 -1.425 -3.424 -2.574 -4.903 c -1.144 -1.471 -1.756 -3.275 -1.726 -5.081 l 0.002 -0.182 c 0 -2.975 -1.255 -5.838 -3.443 -7.855 c -2.22 -2.046 -5.113 -3.037 -8.137 -2.79 c -4.676 0.381 -8.606 3.866 -9.559 8.474 c -0.163 0.785 -0.237 1.586 -0.222 2.381 c 0.035 1.798 -0.558 3.567 -1.669 4.98 c -0.375 0.476 -0.725 0.979 -1.042 1.495 c -0.289 0.469 -0.905 0.617 -1.375 0.329 c -0.471 -0.289 -0.618 -0.905 -0.329 -1.375 c 0.357 -0.582 0.752 -1.148 1.174 -1.685 c 0.827 -1.051 1.268 -2.366 1.241 -3.704 c -0.019 -0.944 0.07 -1.895 0.263 -2.826 c 1.131 -5.472 5.8 -9.609 11.355 -10.062 c 3.595 -0.291 7.02 0.884 9.654 3.312 c 2.598 2.395 4.088 5.794 4.088 9.326 l -0.002 0.214 c -0.023 1.354 0.44 2.71 1.305 3.822 c 1.295 1.666 2.272 3.527 2.903 5.53 c 0.166 0.526 -0.127 1.088 -0.653 1.254 C 74.766 44.747 74.666 44.762 74.566 44.762 z" style="stroke: none; stroke-width: 1; stroke-dasharray: none; stroke-linecap: butt; stroke-linejoin: miter; stroke-miterlimit: 10; fill: rgb(0,0,0); fill-rule: nonzero; opacity: 1;" transform=" matrix(1 0 0 1 0 0) " stroke-linecap="round" />
	<path d="M 68.446 44.085 c -0.4 0 -0.778 -0.243 -0.933 -0.639 c -0.118 -0.306 -0.251 -0.606 -0.396 -0.902 c -0.382 -0.776 -0.854 -1.511 -1.402 -2.181 c -0.35 -0.428 -0.286 -1.058 0.142 -1.407 c 0.428 -0.351 1.057 -0.285 1.407 0.142 c 0.644 0.788 1.198 1.65 1.649 2.565 c 0.17 0.348 0.326 0.702 0.466 1.061 c 0.199 0.515 -0.057 1.094 -0.571 1.294 C 68.689 44.063 68.566 44.085 68.446 44.085 z" style="stroke: none; stroke-width: 1; stroke-dasharray: none; stroke-linecap: butt; stroke-linejoin: miter; stroke-miterlimit: 10; fill: rgb(0,0,0); fill-rule: nonzero; opacity: 1;" transform=" matrix(1 0 0 1 0 0) " stroke-linecap="round" />
	<path d="M 58.021 23.215 c -0.488 0 -0.983 -0.035 -1.473 -0.104 c -0.277 -0.039 -0.552 -0.085 -0.816 -0.146 c -0.013 -0.003 -0.117 -0.03 -0.131 -0.033 l 0.205 -0.98 l -0.242 0.97 c -0.223 -0.056 -0.438 -0.119 -0.65 -0.189 c -2.368 -0.786 -4.204 -2.522 -5.31 -5.021 l -0.051 -0.109 c -0.197 -0.459 -0.375 -0.958 -0.524 -1.477 l -0.044 -0.157 c -0.069 -0.253 -0.129 -0.501 -0.184 -0.753 c -0.055 -0.254 -0.106 -0.513 -0.149 -0.776 c -0.055 -0.342 -0.092 -0.638 -0.122 -0.937 c -0.072 -0.687 -0.104 -1.387 -0.098 -2.082 c 0.006 -0.526 0.418 -0.959 0.944 -0.988 c 2.758 -0.156 5.16 0.661 6.935 2.358 c 2.184 2.088 3.362 5.433 3.319 9.418 c -0.006 0.527 -0.419 0.958 -0.944 0.988 C 58.46 23.208 58.225 23.211 58.021 23.215 z M 50.452 12.422 c 0.015 0.292 0.037 0.584 0.066 0.873 c 0.028 0.264 0.06 0.524 0.1 0.78 c 0.046 0.271 0.09 0.494 0.139 0.715 c 0.047 0.215 0.097 0.428 0.154 0.636 c 0.001 0.005 0.026 0.098 0.027 0.103 c 0.139 0.48 0.288 0.899 0.455 1.287 c 0.924 2.083 2.307 3.406 4.15 4.018 c 0.164 0.055 0.333 0.104 0.505 0.147 c 0.002 0 0.003 0.001 0.005 0.001 c 0.005 0.001 0.068 0.019 0.074 0.02 c 0.26 0.062 0.478 0.098 0.698 0.128 c 0.267 0.038 0.527 0.063 0.788 0.075 c -0.14 -2.982 -1.078 -5.433 -2.685 -6.969 C 53.751 13.109 52.248 12.5 50.452 12.422 z" style="stroke: none; stroke-width: 1; stroke-dasharray: none; stroke-linecap: butt; stroke-linejoin: miter; stroke-miterlimit: 10; fill: rgb(0,0,0); fill-rule: nonzero; opacity: 1;" transform=" matrix(1 0 0 1 0 0) " stroke-linecap="round" />
	<path d="M 58.635 23.215 c -0.548 0 -0.994 -0.44 -1 -0.989 c -0.052 -4.752 1.641 -8.561 4.644 -10.452 c 0.471 -0.293 1.085 -0.153 1.38 0.313 c 0.294 0.467 0.153 1.085 -0.313 1.379 c -2.402 1.512 -3.754 4.697 -3.71 8.738 c 0.006 0.552 -0.437 1.005 -0.989 1.011 C 58.642 23.215 58.639 23.215 58.635 23.215 z" style="stroke: none; stroke-width: 1; stroke-dasharray: none; stroke-linecap: butt; stroke-linejoin: miter; stroke-miterlimit: 10; fill: rgb(0,0,0); fill-rule: nonzero; opacity: 1;" transform=" matrix(1 0 0 1 0 0) " stroke-linecap="round" />
</g>
</svg>